<svg xmlns="http://www.w3.org/2000/svg" width="286" height="79" fill="none"><defs><filter id="a" width="286" height="79" x="0" y="0" color-interpolation-filters="sRGB" filterUnits="userSpaceOnUse"><feFlood flood-opacity="0" result="BackgroundImageFix"/><feGaussianBlur in="BackgroundImage" stdDeviation="5"/><feComposite in2="SourceAlpha" operator="in" result="effect_backgroundBlur_1"/><feBlend in="SourceGraphic" in2="effect_backgroundBlur_1" result="shape"/></filter></defs><g fill="#FFF" fill-rule="evenodd" filter="url(#a)"><path fill-opacity=".3" d="M35 0h251v44c0 19.33-15.68 35-35 35H0V35C0 15.67 15.67 0 35 0Z"/><path d="M286 0v44c0 19.33-15.68 35-35 35H0V35C0 15.67 15.67 0 35 0h251Zm-3 3v41c0 17.67-14.33 32-32 32H3V35C3 17.32 17.32 3 35 3h248Z"/></g></svg>